<svg width="181" height="64" viewBox="0 0 181 64" fill="none" xmlns="http://www.w3.org/2000/svg">
<path d="M0.704 0.639997H20.864C24.416 0.639997 27.728 1.12 30.8 2.08C33.872 3.04 36.352 4.64 38.24 6.88C40.16 9.12 41.12 12.176 41.12 16.048C41.12 18.64 40.624 20.96 39.632 23.008C38.64 25.056 37.376 26.736 35.84 28.048C34.304 29.328 32.688 30.144 30.992 30.496C32.432 30.656 33.904 31.088 35.408 31.792C36.912 32.496 38.304 33.472 39.584 34.72C40.864 35.968 41.888 37.536 42.656 39.424C43.456 41.312 43.856 43.52 43.856 46.048C43.856 49.568 43.088 52.688 41.552 55.408C40.048 58.096 37.808 60.208 34.832 61.744C31.888 63.248 28.224 64 23.84 64H0.704V0.639997ZM12.704 54.304H21.392C23.824 54.304 25.76 53.904 27.2 53.104C28.672 52.304 29.728 51.216 30.368 49.84C31.008 48.464 31.328 46.896 31.328 45.136C31.328 42.32 30.432 40.16 28.64 38.656C26.848 37.152 24.304 36.4 21.008 36.4H12.704V54.304ZM12.704 26.896H20.336C22.32 26.896 23.952 26.512 25.232 25.744C26.544 24.944 27.536 23.888 28.208 22.576C28.88 21.232 29.216 19.776 29.216 18.208C29.216 15.2 28.336 13.136 26.576 12.016C24.848 10.896 22.496 10.336 19.52 10.336H12.704V26.896ZM73.4255 0.639997H85.4735L109.858 64H97.0895L92.1455 50.32H66.8015L61.7615 64H48.9455L73.4255 0.639997ZM70.7375 39.712H88.2095L79.5215 15.136H79.3775L70.7375 39.712ZM180.172 0.639997V64H168.219V23.44L168.796 14.224L166.635 24.688L154.203 59.488H142.396L130.011 24.688L127.899 14.224L128.427 23.44V64H116.427V0.639997H133.035L147.531 45.808L148.299 50.128L149.068 45.808L163.612 0.639997H180.172Z" fill="#4C555C" fill-opacity="0.2"/>
</svg>
