<svg width="94" height="85" viewBox="0 0 94 85" fill="none" xmlns="http://www.w3.org/2000/svg">
<path d="M0.380251 21.64H20.5403C24.0923 21.64 27.4043 22.12 30.4763 23.08C33.5483 24.04 36.0283 25.64 37.9163 27.88C39.8363 30.12 40.7963 33.176 40.7963 37.048C40.7963 39.64 40.3003 41.96 39.3083 44.008C38.3163 46.056 37.0523 47.736 35.5163 49.048C33.9803 50.328 32.3643 51.144 30.6683 51.496C32.1083 51.656 33.5803 52.088 35.0843 52.792C36.5883 53.496 37.9803 54.472 39.2603 55.72C40.5403 56.968 41.5643 58.536 42.3323 60.424C43.1323 62.312 43.5323 64.52 43.5323 67.048C43.5323 70.568 42.7643 73.688 41.2283 76.408C39.7243 79.096 37.4843 81.208 34.5083 82.744C31.5643 84.248 27.9003 85 23.5163 85H0.380251V21.64ZM12.3803 75.304H21.0683C23.5003 75.304 25.4363 74.904 26.8763 74.104C28.3483 73.304 29.4043 72.216 30.0443 70.84C30.6843 69.464 31.0043 67.896 31.0043 66.136C31.0043 63.32 30.1083 61.16 28.3163 59.656C26.5243 58.152 23.9803 57.4 20.6843 57.4H12.3803V75.304ZM12.3803 47.896H20.0123C21.9963 47.896 23.6283 47.512 24.9083 46.744C26.2203 45.944 27.2123 44.888 27.8843 43.576C28.5563 42.232 28.8923 40.776 28.8923 39.208C28.8923 36.2 28.0123 34.136 26.2523 33.016C24.5243 31.896 22.1723 31.336 19.1963 31.336H12.3803V47.896ZM53.8357 21.64H93.1477V32.248H65.7397V48.088H92.7637V58.36H65.7397V74.392H93.1477V85H53.8357V21.64ZM68.7157 18.952L64.9237 13.816L80.1877 0.903996L86.2357 8.536L68.7157 18.952Z" fill="#C2AE9E" fill-opacity="0.2"/>
</svg>
